<?xml version="1.0" encoding="utf-8" standalone="no"?>
<!DOCTYPE svg PUBLIC "-//W3C//DTD SVG 1.1//EN"
  "http://www.w3.org/Graphics/SVG/1.1/DTD/svg11.dtd">
<!-- Created with matplotlib (https://matplotlib.org/) -->
<svg height="208.432813pt" version="1.1" viewBox="0 0 273.532812 208.432813" width="273.532812pt" xmlns="http://www.w3.org/2000/svg" xmlns:xlink="http://www.w3.org/1999/xlink">
 <defs>
  <style type="text/css">
*{stroke-linecap:butt;stroke-linejoin:round;}
  </style>
 </defs>
 <g id="figure_1">
  <g id="patch_1">
   <path d="M 0 208.432813 
L 273.532812 208.432813 
L 273.532812 0 
L 0 0 
z
" style="fill:#ffffff;"/>
  </g>
  <g id="axes_1">
   <g id="patch_2">
    <path d="M 39.632812 173.78 
L 262.832812 173.78 
L 262.832812 10.7 
L 39.632812 10.7 
z
" style="fill:#ffffff;"/>
   </g>
   <g id="matplotlib.axis_1">
    <g id="xtick_1">
     <g id="line2d_1">
      <defs>
       <path d="M 0 0 
L 0 3.5 
" id="m01580a641e" style="stroke:#000000;stroke-width:0.8;"/>
      </defs>
      <g>
       <use style="stroke:#000000;stroke-width:0.8;" x="72.553416" xlink:href="#m01580a641e" y="173.78"/>
      </g>
     </g>
     <g id="text_1">
      <!-- −2 -->
      <defs>
       <path d="M 10.59375 35.5 
L 73.1875 35.5 
L 73.1875 27.203125 
L 10.59375 27.203125 
z
" id="DejaVuSans-8722"/>
       <path d="M 19.1875 8.296875 
L 53.609375 8.296875 
L 53.609375 0 
L 7.328125 0 
L 7.328125 8.296875 
Q 12.9375 14.109375 22.625 23.890625 
Q 32.328125 33.6875 34.8125 36.53125 
Q 39.546875 41.84375 41.421875 45.53125 
Q 43.3125 49.21875 43.3125 52.78125 
Q 43.3125 58.59375 39.234375 62.25 
Q 35.15625 65.921875 28.609375 65.921875 
Q 23.96875 65.921875 18.8125 64.3125 
Q 13.671875 62.703125 7.8125 59.421875 
L 7.8125 69.390625 
Q 13.765625 71.78125 18.9375 73 
Q 24.125 74.21875 28.421875 74.21875 
Q 39.75 74.21875 46.484375 68.546875 
Q 53.21875 62.890625 53.21875 53.421875 
Q 53.21875 48.921875 51.53125 44.890625 
Q 49.859375 40.875 45.40625 35.40625 
Q 44.1875 33.984375 37.640625 27.21875 
Q 31.109375 20.453125 19.1875 8.296875 
z
" id="DejaVuSans-50"/>
      </defs>
      <g transform="translate(66.656541 186.85875)scale(0.08 -0.08)">
       <use xlink:href="#DejaVuSans-8722"/>
       <use x="83.789062" xlink:href="#DejaVuSans-50"/>
      </g>
     </g>
    </g>
    <g id="xtick_2">
     <g id="line2d_2">
      <g>
       <use style="stroke:#000000;stroke-width:0.8;" x="109.693351" xlink:href="#m01580a641e" y="173.78"/>
      </g>
     </g>
     <g id="text_2">
      <!-- −1 -->
      <defs>
       <path d="M 12.40625 8.296875 
L 28.515625 8.296875 
L 28.515625 63.921875 
L 10.984375 60.40625 
L 10.984375 69.390625 
L 28.421875 72.90625 
L 38.28125 72.90625 
L 38.28125 8.296875 
L 54.390625 8.296875 
L 54.390625 0 
L 12.40625 0 
z
" id="DejaVuSans-49"/>
      </defs>
      <g transform="translate(103.796476 186.85875)scale(0.08 -0.08)">
       <use xlink:href="#DejaVuSans-8722"/>
       <use x="83.789062" xlink:href="#DejaVuSans-49"/>
      </g>
     </g>
    </g>
    <g id="xtick_3">
     <g id="line2d_3">
      <g>
       <use style="stroke:#000000;stroke-width:0.8;" x="146.833286" xlink:href="#m01580a641e" y="173.78"/>
      </g>
     </g>
     <g id="text_3">
      <!-- 0 -->
      <defs>
       <path d="M 31.78125 66.40625 
Q 24.171875 66.40625 20.328125 58.90625 
Q 16.5 51.421875 16.5 36.375 
Q 16.5 21.390625 20.328125 13.890625 
Q 24.171875 6.390625 31.78125 6.390625 
Q 39.453125 6.390625 43.28125 13.890625 
Q 47.125 21.390625 47.125 36.375 
Q 47.125 51.421875 43.28125 58.90625 
Q 39.453125 66.40625 31.78125 66.40625 
z
M 31.78125 74.21875 
Q 44.046875 74.21875 50.515625 64.515625 
Q 56.984375 54.828125 56.984375 36.375 
Q 56.984375 17.96875 50.515625 8.265625 
Q 44.046875 -1.421875 31.78125 -1.421875 
Q 19.53125 -1.421875 13.0625 8.265625 
Q 6.59375 17.96875 6.59375 36.375 
Q 6.59375 54.828125 13.0625 64.515625 
Q 19.53125 74.21875 31.78125 74.21875 
z
" id="DejaVuSans-48"/>
      </defs>
      <g transform="translate(144.288286 186.85875)scale(0.08 -0.08)">
       <use xlink:href="#DejaVuSans-48"/>
      </g>
     </g>
    </g>
    <g id="xtick_4">
     <g id="line2d_4">
      <g>
       <use style="stroke:#000000;stroke-width:0.8;" x="183.97322" xlink:href="#m01580a641e" y="173.78"/>
      </g>
     </g>
     <g id="text_4">
      <!-- 1 -->
      <g transform="translate(181.42822 186.85875)scale(0.08 -0.08)">
       <use xlink:href="#DejaVuSans-49"/>
      </g>
     </g>
    </g>
    <g id="xtick_5">
     <g id="line2d_5">
      <g>
       <use style="stroke:#000000;stroke-width:0.8;" x="221.113155" xlink:href="#m01580a641e" y="173.78"/>
      </g>
     </g>
     <g id="text_5">
      <!-- 2 -->
      <g transform="translate(218.568155 186.85875)scale(0.08 -0.08)">
       <use xlink:href="#DejaVuSans-50"/>
      </g>
     </g>
    </g>
    <g id="xtick_6">
     <g id="line2d_6">
      <g>
       <use style="stroke:#000000;stroke-width:0.8;" x="258.25309" xlink:href="#m01580a641e" y="173.78"/>
      </g>
     </g>
     <g id="text_6">
      <!-- 3 -->
      <defs>
       <path d="M 40.578125 39.3125 
Q 47.65625 37.796875 51.625 33 
Q 55.609375 28.21875 55.609375 21.1875 
Q 55.609375 10.40625 48.1875 4.484375 
Q 40.765625 -1.421875 27.09375 -1.421875 
Q 22.515625 -1.421875 17.65625 -0.515625 
Q 12.796875 0.390625 7.625 2.203125 
L 7.625 11.71875 
Q 11.71875 9.328125 16.59375 8.109375 
Q 21.484375 6.890625 26.8125 6.890625 
Q 36.078125 6.890625 40.9375 10.546875 
Q 45.796875 14.203125 45.796875 21.1875 
Q 45.796875 27.640625 41.28125 31.265625 
Q 36.765625 34.90625 28.71875 34.90625 
L 20.21875 34.90625 
L 20.21875 43.015625 
L 29.109375 43.015625 
Q 36.375 43.015625 40.234375 45.921875 
Q 44.09375 48.828125 44.09375 54.296875 
Q 44.09375 59.90625 40.109375 62.90625 
Q 36.140625 65.921875 28.71875 65.921875 
Q 24.65625 65.921875 20.015625 65.03125 
Q 15.375 64.15625 9.8125 62.3125 
L 9.8125 71.09375 
Q 15.4375 72.65625 20.34375 73.4375 
Q 25.25 74.21875 29.59375 74.21875 
Q 40.828125 74.21875 47.359375 69.109375 
Q 53.90625 64.015625 53.90625 55.328125 
Q 53.90625 49.265625 50.4375 45.09375 
Q 46.96875 40.921875 40.578125 39.3125 
z
" id="DejaVuSans-51"/>
      </defs>
      <g transform="translate(255.70809 186.85875)scale(0.08 -0.08)">
       <use xlink:href="#DejaVuSans-51"/>
      </g>
     </g>
    </g>
    <g id="text_7">
     <!-- Log2(FC) -->
     <defs>
      <path d="M 9.8125 72.90625 
L 19.671875 72.90625 
L 19.671875 8.296875 
L 55.171875 8.296875 
L 55.171875 0 
L 9.8125 0 
z
" id="DejaVuSans-76"/>
      <path d="M 30.609375 48.390625 
Q 23.390625 48.390625 19.1875 42.75 
Q 14.984375 37.109375 14.984375 27.296875 
Q 14.984375 17.484375 19.15625 11.84375 
Q 23.34375 6.203125 30.609375 6.203125 
Q 37.796875 6.203125 41.984375 11.859375 
Q 46.1875 17.53125 46.1875 27.296875 
Q 46.1875 37.015625 41.984375 42.703125 
Q 37.796875 48.390625 30.609375 48.390625 
z
M 30.609375 56 
Q 42.328125 56 49.015625 48.375 
Q 55.71875 40.765625 55.71875 27.296875 
Q 55.71875 13.875 49.015625 6.21875 
Q 42.328125 -1.421875 30.609375 -1.421875 
Q 18.84375 -1.421875 12.171875 6.21875 
Q 5.515625 13.875 5.515625 27.296875 
Q 5.515625 40.765625 12.171875 48.375 
Q 18.84375 56 30.609375 56 
z
" id="DejaVuSans-111"/>
      <path d="M 45.40625 27.984375 
Q 45.40625 37.75 41.375 43.109375 
Q 37.359375 48.484375 30.078125 48.484375 
Q 22.859375 48.484375 18.828125 43.109375 
Q 14.796875 37.75 14.796875 27.984375 
Q 14.796875 18.265625 18.828125 12.890625 
Q 22.859375 7.515625 30.078125 7.515625 
Q 37.359375 7.515625 41.375 12.890625 
Q 45.40625 18.265625 45.40625 27.984375 
z
M 54.390625 6.78125 
Q 54.390625 -7.171875 48.1875 -13.984375 
Q 42 -20.796875 29.203125 -20.796875 
Q 24.46875 -20.796875 20.265625 -20.09375 
Q 16.0625 -19.390625 12.109375 -17.921875 
L 12.109375 -9.1875 
Q 16.0625 -11.328125 19.921875 -12.34375 
Q 23.78125 -13.375 27.78125 -13.375 
Q 36.625 -13.375 41.015625 -8.765625 
Q 45.40625 -4.15625 45.40625 5.171875 
L 45.40625 9.625 
Q 42.625 4.78125 38.28125 2.390625 
Q 33.9375 0 27.875 0 
Q 17.828125 0 11.671875 7.65625 
Q 5.515625 15.328125 5.515625 27.984375 
Q 5.515625 40.671875 11.671875 48.328125 
Q 17.828125 56 27.875 56 
Q 33.9375 56 38.28125 53.609375 
Q 42.625 51.21875 45.40625 46.390625 
L 45.40625 54.6875 
L 54.390625 54.6875 
z
" id="DejaVuSans-103"/>
      <path d="M 31 75.875 
Q 24.46875 64.65625 21.28125 53.65625 
Q 18.109375 42.671875 18.109375 31.390625 
Q 18.109375 20.125 21.3125 9.0625 
Q 24.515625 -2 31 -13.1875 
L 23.1875 -13.1875 
Q 15.875 -1.703125 12.234375 9.375 
Q 8.59375 20.453125 8.59375 31.390625 
Q 8.59375 42.28125 12.203125 53.3125 
Q 15.828125 64.359375 23.1875 75.875 
z
" id="DejaVuSans-40"/>
      <path d="M 9.8125 72.90625 
L 51.703125 72.90625 
L 51.703125 64.59375 
L 19.671875 64.59375 
L 19.671875 43.109375 
L 48.578125 43.109375 
L 48.578125 34.8125 
L 19.671875 34.8125 
L 19.671875 0 
L 9.8125 0 
z
" id="DejaVuSans-70"/>
      <path d="M 64.40625 67.28125 
L 64.40625 56.890625 
Q 59.421875 61.53125 53.78125 63.8125 
Q 48.140625 66.109375 41.796875 66.109375 
Q 29.296875 66.109375 22.65625 58.46875 
Q 16.015625 50.828125 16.015625 36.375 
Q 16.015625 21.96875 22.65625 14.328125 
Q 29.296875 6.6875 41.796875 6.6875 
Q 48.140625 6.6875 53.78125 8.984375 
Q 59.421875 11.28125 64.40625 15.921875 
L 64.40625 5.609375 
Q 59.234375 2.09375 53.4375 0.328125 
Q 47.65625 -1.421875 41.21875 -1.421875 
Q 24.65625 -1.421875 15.125 8.703125 
Q 5.609375 18.84375 5.609375 36.375 
Q 5.609375 53.953125 15.125 64.078125 
Q 24.65625 74.21875 41.21875 74.21875 
Q 47.75 74.21875 53.53125 72.484375 
Q 59.328125 70.75 64.40625 67.28125 
z
" id="DejaVuSans-67"/>
      <path d="M 8.015625 75.875 
L 15.828125 75.875 
Q 23.140625 64.359375 26.78125 53.3125 
Q 30.421875 42.28125 30.421875 31.390625 
Q 30.421875 20.453125 26.78125 9.375 
Q 23.140625 -1.703125 15.828125 -13.1875 
L 8.015625 -13.1875 
Q 14.5 -2 17.703125 9.0625 
Q 20.90625 20.125 20.90625 31.390625 
Q 20.90625 42.671875 17.703125 53.65625 
Q 14.5 64.65625 8.015625 75.875 
z
" id="DejaVuSans-41"/>
     </defs>
     <g transform="translate(131.010937 199.361094)scale(0.09 -0.09)">
      <use xlink:href="#DejaVuSans-76"/>
      <use x="55.697266" xlink:href="#DejaVuSans-111"/>
      <use x="116.878906" xlink:href="#DejaVuSans-103"/>
      <use x="180.355469" xlink:href="#DejaVuSans-50"/>
      <use x="243.978516" xlink:href="#DejaVuSans-40"/>
      <use x="282.992188" xlink:href="#DejaVuSans-70"/>
      <use x="340.511719" xlink:href="#DejaVuSans-67"/>
      <use x="410.335938" xlink:href="#DejaVuSans-41"/>
     </g>
    </g>
   </g>
   <g id="matplotlib.axis_2">
    <g id="ytick_1">
     <g id="line2d_7">
      <defs>
       <path d="M 0 0 
L -3.5 0 
" id="me97eda12b5" style="stroke:#000000;stroke-width:0.8;"/>
      </defs>
      <g>
       <use style="stroke:#000000;stroke-width:0.8;" x="39.632812" xlink:href="#me97eda12b5" y="166.367273"/>
      </g>
     </g>
     <g id="text_8">
      <!-- 0.0 -->
      <defs>
       <path d="M 10.6875 12.40625 
L 21 12.40625 
L 21 0 
L 10.6875 0 
z
" id="DejaVuSans-46"/>
      </defs>
      <g transform="translate(19.910312 169.406648)scale(0.08 -0.08)">
       <use xlink:href="#DejaVuSans-48"/>
       <use x="63.623047" xlink:href="#DejaVuSans-46"/>
       <use x="95.410156" xlink:href="#DejaVuSans-48"/>
      </g>
     </g>
    </g>
    <g id="ytick_2">
     <g id="line2d_8">
      <g>
       <use style="stroke:#000000;stroke-width:0.8;" x="39.632812" xlink:href="#me97eda12b5" y="136.656943"/>
      </g>
     </g>
     <g id="text_9">
      <!-- 0.2 -->
      <g transform="translate(19.910312 139.696318)scale(0.08 -0.08)">
       <use xlink:href="#DejaVuSans-48"/>
       <use x="63.623047" xlink:href="#DejaVuSans-46"/>
       <use x="95.410156" xlink:href="#DejaVuSans-50"/>
      </g>
     </g>
    </g>
    <g id="ytick_3">
     <g id="line2d_9">
      <g>
       <use style="stroke:#000000;stroke-width:0.8;" x="39.632812" xlink:href="#me97eda12b5" y="106.946613"/>
      </g>
     </g>
     <g id="text_10">
      <!-- 0.4 -->
      <defs>
       <path d="M 37.796875 64.3125 
L 12.890625 25.390625 
L 37.796875 25.390625 
z
M 35.203125 72.90625 
L 47.609375 72.90625 
L 47.609375 25.390625 
L 58.015625 25.390625 
L 58.015625 17.1875 
L 47.609375 17.1875 
L 47.609375 0 
L 37.796875 0 
L 37.796875 17.1875 
L 4.890625 17.1875 
L 4.890625 26.703125 
z
" id="DejaVuSans-52"/>
      </defs>
      <g transform="translate(19.910312 109.985988)scale(0.08 -0.08)">
       <use xlink:href="#DejaVuSans-48"/>
       <use x="63.623047" xlink:href="#DejaVuSans-46"/>
       <use x="95.410156" xlink:href="#DejaVuSans-52"/>
      </g>
     </g>
    </g>
    <g id="ytick_4">
     <g id="line2d_10">
      <g>
       <use style="stroke:#000000;stroke-width:0.8;" x="39.632812" xlink:href="#me97eda12b5" y="77.236283"/>
      </g>
     </g>
     <g id="text_11">
      <!-- 0.6 -->
      <defs>
       <path d="M 33.015625 40.375 
Q 26.375 40.375 22.484375 35.828125 
Q 18.609375 31.296875 18.609375 23.390625 
Q 18.609375 15.53125 22.484375 10.953125 
Q 26.375 6.390625 33.015625 6.390625 
Q 39.65625 6.390625 43.53125 10.953125 
Q 47.40625 15.53125 47.40625 23.390625 
Q 47.40625 31.296875 43.53125 35.828125 
Q 39.65625 40.375 33.015625 40.375 
z
M 52.59375 71.296875 
L 52.59375 62.3125 
Q 48.875 64.0625 45.09375 64.984375 
Q 41.3125 65.921875 37.59375 65.921875 
Q 27.828125 65.921875 22.671875 59.328125 
Q 17.53125 52.734375 16.796875 39.40625 
Q 19.671875 43.65625 24.015625 45.921875 
Q 28.375 48.1875 33.59375 48.1875 
Q 44.578125 48.1875 50.953125 41.515625 
Q 57.328125 34.859375 57.328125 23.390625 
Q 57.328125 12.15625 50.6875 5.359375 
Q 44.046875 -1.421875 33.015625 -1.421875 
Q 20.359375 -1.421875 13.671875 8.265625 
Q 6.984375 17.96875 6.984375 36.375 
Q 6.984375 53.65625 15.1875 63.9375 
Q 23.390625 74.21875 37.203125 74.21875 
Q 40.921875 74.21875 44.703125 73.484375 
Q 48.484375 72.75 52.59375 71.296875 
z
" id="DejaVuSans-54"/>
      </defs>
      <g transform="translate(19.910312 80.275658)scale(0.08 -0.08)">
       <use xlink:href="#DejaVuSans-48"/>
       <use x="63.623047" xlink:href="#DejaVuSans-46"/>
       <use x="95.410156" xlink:href="#DejaVuSans-54"/>
      </g>
     </g>
    </g>
    <g id="ytick_5">
     <g id="line2d_11">
      <g>
       <use style="stroke:#000000;stroke-width:0.8;" x="39.632812" xlink:href="#me97eda12b5" y="47.525954"/>
      </g>
     </g>
     <g id="text_12">
      <!-- 0.8 -->
      <defs>
       <path d="M 31.78125 34.625 
Q 24.75 34.625 20.71875 30.859375 
Q 16.703125 27.09375 16.703125 20.515625 
Q 16.703125 13.921875 20.71875 10.15625 
Q 24.75 6.390625 31.78125 6.390625 
Q 38.8125 6.390625 42.859375 10.171875 
Q 46.921875 13.96875 46.921875 20.515625 
Q 46.921875 27.09375 42.890625 30.859375 
Q 38.875 34.625 31.78125 34.625 
z
M 21.921875 38.8125 
Q 15.578125 40.375 12.03125 44.71875 
Q 8.5 49.078125 8.5 55.328125 
Q 8.5 64.0625 14.71875 69.140625 
Q 20.953125 74.21875 31.78125 74.21875 
Q 42.671875 74.21875 48.875 69.140625 
Q 55.078125 64.0625 55.078125 55.328125 
Q 55.078125 49.078125 51.53125 44.71875 
Q 48 40.375 41.703125 38.8125 
Q 48.828125 37.15625 52.796875 32.3125 
Q 56.78125 27.484375 56.78125 20.515625 
Q 56.78125 9.90625 50.3125 4.234375 
Q 43.84375 -1.421875 31.78125 -1.421875 
Q 19.734375 -1.421875 13.25 4.234375 
Q 6.78125 9.90625 6.78125 20.515625 
Q 6.78125 27.484375 10.78125 32.3125 
Q 14.796875 37.15625 21.921875 38.8125 
z
M 18.3125 54.390625 
Q 18.3125 48.734375 21.84375 45.5625 
Q 25.390625 42.390625 31.78125 42.390625 
Q 38.140625 42.390625 41.71875 45.5625 
Q 45.3125 48.734375 45.3125 54.390625 
Q 45.3125 60.0625 41.71875 63.234375 
Q 38.140625 66.40625 31.78125 66.40625 
Q 25.390625 66.40625 21.84375 63.234375 
Q 18.3125 60.0625 18.3125 54.390625 
z
" id="DejaVuSans-56"/>
      </defs>
      <g transform="translate(19.910312 50.565329)scale(0.08 -0.08)">
       <use xlink:href="#DejaVuSans-48"/>
       <use x="63.623047" xlink:href="#DejaVuSans-46"/>
       <use x="95.410156" xlink:href="#DejaVuSans-56"/>
      </g>
     </g>
    </g>
    <g id="ytick_6">
     <g id="line2d_12">
      <g>
       <use style="stroke:#000000;stroke-width:0.8;" x="39.632812" xlink:href="#me97eda12b5" y="17.815624"/>
      </g>
     </g>
     <g id="text_13">
      <!-- 1.0 -->
      <g transform="translate(19.910312 20.854999)scale(0.08 -0.08)">
       <use xlink:href="#DejaVuSans-49"/>
       <use x="63.623047" xlink:href="#DejaVuSans-46"/>
       <use x="95.410156" xlink:href="#DejaVuSans-48"/>
      </g>
     </g>
    </g>
    <g id="text_14">
     <!-- Cumulative Distribution -->
     <defs>
      <path d="M 8.5 21.578125 
L 8.5 54.6875 
L 17.484375 54.6875 
L 17.484375 21.921875 
Q 17.484375 14.15625 20.5 10.265625 
Q 23.53125 6.390625 29.59375 6.390625 
Q 36.859375 6.390625 41.078125 11.03125 
Q 45.3125 15.671875 45.3125 23.6875 
L 45.3125 54.6875 
L 54.296875 54.6875 
L 54.296875 0 
L 45.3125 0 
L 45.3125 8.40625 
Q 42.046875 3.421875 37.71875 1 
Q 33.40625 -1.421875 27.6875 -1.421875 
Q 18.265625 -1.421875 13.375 4.4375 
Q 8.5 10.296875 8.5 21.578125 
z
M 31.109375 56 
z
" id="DejaVuSans-117"/>
      <path d="M 52 44.1875 
Q 55.375 50.25 60.0625 53.125 
Q 64.75 56 71.09375 56 
Q 79.640625 56 84.28125 50.015625 
Q 88.921875 44.046875 88.921875 33.015625 
L 88.921875 0 
L 79.890625 0 
L 79.890625 32.71875 
Q 79.890625 40.578125 77.09375 44.375 
Q 74.3125 48.1875 68.609375 48.1875 
Q 61.625 48.1875 57.5625 43.546875 
Q 53.515625 38.921875 53.515625 30.90625 
L 53.515625 0 
L 44.484375 0 
L 44.484375 32.71875 
Q 44.484375 40.625 41.703125 44.40625 
Q 38.921875 48.1875 33.109375 48.1875 
Q 26.21875 48.1875 22.15625 43.53125 
Q 18.109375 38.875 18.109375 30.90625 
L 18.109375 0 
L 9.078125 0 
L 9.078125 54.6875 
L 18.109375 54.6875 
L 18.109375 46.1875 
Q 21.1875 51.21875 25.484375 53.609375 
Q 29.78125 56 35.6875 56 
Q 41.65625 56 45.828125 52.96875 
Q 50 49.953125 52 44.1875 
z
" id="DejaVuSans-109"/>
      <path d="M 9.421875 75.984375 
L 18.40625 75.984375 
L 18.40625 0 
L 9.421875 0 
z
" id="DejaVuSans-108"/>
      <path d="M 34.28125 27.484375 
Q 23.390625 27.484375 19.1875 25 
Q 14.984375 22.515625 14.984375 16.5 
Q 14.984375 11.71875 18.140625 8.90625 
Q 21.296875 6.109375 26.703125 6.109375 
Q 34.1875 6.109375 38.703125 11.40625 
Q 43.21875 16.703125 43.21875 25.484375 
L 43.21875 27.484375 
z
M 52.203125 31.203125 
L 52.203125 0 
L 43.21875 0 
L 43.21875 8.296875 
Q 40.140625 3.328125 35.546875 0.953125 
Q 30.953125 -1.421875 24.3125 -1.421875 
Q 15.921875 -1.421875 10.953125 3.296875 
Q 6 8.015625 6 15.921875 
Q 6 25.140625 12.171875 29.828125 
Q 18.359375 34.515625 30.609375 34.515625 
L 43.21875 34.515625 
L 43.21875 35.40625 
Q 43.21875 41.609375 39.140625 45 
Q 35.0625 48.390625 27.6875 48.390625 
Q 23 48.390625 18.546875 47.265625 
Q 14.109375 46.140625 10.015625 43.890625 
L 10.015625 52.203125 
Q 14.9375 54.109375 19.578125 55.046875 
Q 24.21875 56 28.609375 56 
Q 40.484375 56 46.34375 49.84375 
Q 52.203125 43.703125 52.203125 31.203125 
z
" id="DejaVuSans-97"/>
      <path d="M 18.3125 70.21875 
L 18.3125 54.6875 
L 36.8125 54.6875 
L 36.8125 47.703125 
L 18.3125 47.703125 
L 18.3125 18.015625 
Q 18.3125 11.328125 20.140625 9.421875 
Q 21.96875 7.515625 27.59375 7.515625 
L 36.8125 7.515625 
L 36.8125 0 
L 27.59375 0 
Q 17.1875 0 13.234375 3.875 
Q 9.28125 7.765625 9.28125 18.015625 
L 9.28125 47.703125 
L 2.6875 47.703125 
L 2.6875 54.6875 
L 9.28125 54.6875 
L 9.28125 70.21875 
z
" id="DejaVuSans-116"/>
      <path d="M 9.421875 54.6875 
L 18.40625 54.6875 
L 18.40625 0 
L 9.421875 0 
z
M 9.421875 75.984375 
L 18.40625 75.984375 
L 18.40625 64.59375 
L 9.421875 64.59375 
z
" id="DejaVuSans-105"/>
      <path d="M 2.984375 54.6875 
L 12.5 54.6875 
L 29.59375 8.796875 
L 46.6875 54.6875 
L 56.203125 54.6875 
L 35.6875 0 
L 23.484375 0 
z
" id="DejaVuSans-118"/>
      <path d="M 56.203125 29.59375 
L 56.203125 25.203125 
L 14.890625 25.203125 
Q 15.484375 15.921875 20.484375 11.0625 
Q 25.484375 6.203125 34.421875 6.203125 
Q 39.59375 6.203125 44.453125 7.46875 
Q 49.3125 8.734375 54.109375 11.28125 
L 54.109375 2.78125 
Q 49.265625 0.734375 44.1875 -0.34375 
Q 39.109375 -1.421875 33.890625 -1.421875 
Q 20.796875 -1.421875 13.15625 6.1875 
Q 5.515625 13.8125 5.515625 26.8125 
Q 5.515625 40.234375 12.765625 48.109375 
Q 20.015625 56 32.328125 56 
Q 43.359375 56 49.78125 48.890625 
Q 56.203125 41.796875 56.203125 29.59375 
z
M 47.21875 32.234375 
Q 47.125 39.59375 43.09375 43.984375 
Q 39.0625 48.390625 32.421875 48.390625 
Q 24.90625 48.390625 20.390625 44.140625 
Q 15.875 39.890625 15.1875 32.171875 
z
" id="DejaVuSans-101"/>
      <path id="DejaVuSans-32"/>
      <path d="M 19.671875 64.796875 
L 19.671875 8.109375 
L 31.59375 8.109375 
Q 46.6875 8.109375 53.6875 14.9375 
Q 60.6875 21.78125 60.6875 36.53125 
Q 60.6875 51.171875 53.6875 57.984375 
Q 46.6875 64.796875 31.59375 64.796875 
z
M 9.8125 72.90625 
L 30.078125 72.90625 
Q 51.265625 72.90625 61.171875 64.09375 
Q 71.09375 55.28125 71.09375 36.53125 
Q 71.09375 17.671875 61.125 8.828125 
Q 51.171875 0 30.078125 0 
L 9.8125 0 
z
" id="DejaVuSans-68"/>
      <path d="M 44.28125 53.078125 
L 44.28125 44.578125 
Q 40.484375 46.53125 36.375 47.5 
Q 32.28125 48.484375 27.875 48.484375 
Q 21.1875 48.484375 17.84375 46.4375 
Q 14.5 44.390625 14.5 40.28125 
Q 14.5 37.15625 16.890625 35.375 
Q 19.28125 33.59375 26.515625 31.984375 
L 29.59375 31.296875 
Q 39.15625 29.25 43.1875 25.515625 
Q 47.21875 21.78125 47.21875 15.09375 
Q 47.21875 7.46875 41.1875 3.015625 
Q 35.15625 -1.421875 24.609375 -1.421875 
Q 20.21875 -1.421875 15.453125 -0.5625 
Q 10.6875 0.296875 5.421875 2 
L 5.421875 11.28125 
Q 10.40625 8.6875 15.234375 7.390625 
Q 20.0625 6.109375 24.8125 6.109375 
Q 31.15625 6.109375 34.5625 8.28125 
Q 37.984375 10.453125 37.984375 14.40625 
Q 37.984375 18.0625 35.515625 20.015625 
Q 33.0625 21.96875 24.703125 23.78125 
L 21.578125 24.515625 
Q 13.234375 26.265625 9.515625 29.90625 
Q 5.8125 33.546875 5.8125 39.890625 
Q 5.8125 47.609375 11.28125 51.796875 
Q 16.75 56 26.8125 56 
Q 31.78125 56 36.171875 55.265625 
Q 40.578125 54.546875 44.28125 53.078125 
z
" id="DejaVuSans-115"/>
      <path d="M 41.109375 46.296875 
Q 39.59375 47.171875 37.8125 47.578125 
Q 36.03125 48 33.890625 48 
Q 26.265625 48 22.1875 43.046875 
Q 18.109375 38.09375 18.109375 28.8125 
L 18.109375 0 
L 9.078125 0 
L 9.078125 54.6875 
L 18.109375 54.6875 
L 18.109375 46.1875 
Q 20.953125 51.171875 25.484375 53.578125 
Q 30.03125 56 36.53125 56 
Q 37.453125 56 38.578125 55.875 
Q 39.703125 55.765625 41.0625 55.515625 
z
" id="DejaVuSans-114"/>
      <path d="M 48.6875 27.296875 
Q 48.6875 37.203125 44.609375 42.84375 
Q 40.53125 48.484375 33.40625 48.484375 
Q 26.265625 48.484375 22.1875 42.84375 
Q 18.109375 37.203125 18.109375 27.296875 
Q 18.109375 17.390625 22.1875 11.75 
Q 26.265625 6.109375 33.40625 6.109375 
Q 40.53125 6.109375 44.609375 11.75 
Q 48.6875 17.390625 48.6875 27.296875 
z
M 18.109375 46.390625 
Q 20.953125 51.265625 25.265625 53.625 
Q 29.59375 56 35.59375 56 
Q 45.5625 56 51.78125 48.09375 
Q 58.015625 40.1875 58.015625 27.296875 
Q 58.015625 14.40625 51.78125 6.484375 
Q 45.5625 -1.421875 35.59375 -1.421875 
Q 29.59375 -1.421875 25.265625 0.953125 
Q 20.953125 3.328125 18.109375 8.203125 
L 18.109375 0 
L 9.078125 0 
L 9.078125 75.984375 
L 18.109375 75.984375 
z
" id="DejaVuSans-98"/>
      <path d="M 54.890625 33.015625 
L 54.890625 0 
L 45.90625 0 
L 45.90625 32.71875 
Q 45.90625 40.484375 42.875 44.328125 
Q 39.84375 48.1875 33.796875 48.1875 
Q 26.515625 48.1875 22.3125 43.546875 
Q 18.109375 38.921875 18.109375 30.90625 
L 18.109375 0 
L 9.078125 0 
L 9.078125 54.6875 
L 18.109375 54.6875 
L 18.109375 46.1875 
Q 21.34375 51.125 25.703125 53.5625 
Q 30.078125 56 35.796875 56 
Q 45.21875 56 50.046875 50.171875 
Q 54.890625 44.34375 54.890625 33.015625 
z
" id="DejaVuSans-110"/>
     </defs>
     <g transform="translate(14.038594 145.605781)rotate(-90)scale(0.09 -0.09)">
      <use xlink:href="#DejaVuSans-67"/>
      <use x="69.824219" xlink:href="#DejaVuSans-117"/>
      <use x="133.203125" xlink:href="#DejaVuSans-109"/>
      <use x="230.615234" xlink:href="#DejaVuSans-117"/>
      <use x="293.994141" xlink:href="#DejaVuSans-108"/>
      <use x="321.777344" xlink:href="#DejaVuSans-97"/>
      <use x="383.056641" xlink:href="#DejaVuSans-116"/>
      <use x="422.265625" xlink:href="#DejaVuSans-105"/>
      <use x="450.048828" xlink:href="#DejaVuSans-118"/>
      <use x="509.228516" xlink:href="#DejaVuSans-101"/>
      <use x="570.751953" xlink:href="#DejaVuSans-32"/>
      <use x="602.539062" xlink:href="#DejaVuSans-68"/>
      <use x="679.541016" xlink:href="#DejaVuSans-105"/>
      <use x="707.324219" xlink:href="#DejaVuSans-115"/>
      <use x="759.423828" xlink:href="#DejaVuSans-116"/>
      <use x="798.632812" xlink:href="#DejaVuSans-114"/>
      <use x="839.746094" xlink:href="#DejaVuSans-105"/>
      <use x="867.529297" xlink:href="#DejaVuSans-98"/>
      <use x="931.005859" xlink:href="#DejaVuSans-117"/>
      <use x="994.384766" xlink:href="#DejaVuSans-116"/>
      <use x="1033.59375" xlink:href="#DejaVuSans-105"/>
      <use x="1061.376953" xlink:href="#DejaVuSans-111"/>
      <use x="1122.558594" xlink:href="#DejaVuSans-110"/>
     </g>
    </g>
   </g>
   <g id="line2d_13">
    <path clip-path="url(#pee766eb508)" d="M 64.771185 166.367273 
L 71.945318 164.938891 
L 75.763528 163.51051 
L 76.184951 162.082129 
L 84.405686 160.653748 
L 84.733173 159.225367 
L 94.869001 157.796985 
L 99.348569 156.368604 
L 102.701356 154.940223 
L 102.86945 153.511842 
L 103.25194 152.08346 
L 108.545365 150.655079 
L 109.7963 149.226698 
L 110.068571 147.798317 
L 113.102238 146.369935 
L 114.648038 144.941554 
L 116.79061 143.513173 
L 116.982371 142.084792 
L 117.748052 140.65641 
L 119.425236 139.228029 
L 121.15199 137.799648 
L 121.781281 136.371267 
L 123.498794 134.942885 
L 123.86504 133.514504 
L 124.757723 132.086123 
L 124.900733 130.657742 
L 125.110531 129.229361 
L 127.389502 127.800979 
L 129.297781 126.372598 
L 129.536632 124.944217 
L 129.869343 123.515836 
L 130.119808 122.087454 
L 130.810432 120.659073 
L 130.830942 119.230692 
L 131.468253 117.802311 
L 131.60571 116.373929 
L 134.981013 114.945548 
L 135.503386 113.517167 
L 135.633787 112.088786 
L 137.082054 110.660404 
L 138.05903 109.232023 
L 139.754092 107.803642 
L 140.918631 106.375261 
L 141.176146 104.946879 
L 143.970093 103.518498 
L 144.234731 102.090117 
L 144.416057 100.661736 
L 144.666815 99.233355 
L 145.712023 97.804973 
L 148.877568 96.376592 
L 149.18954 94.948211 
L 149.454536 93.51983 
L 150.320283 92.091448 
L 150.73853 90.663067 
L 151.322309 89.234686 
L 151.549188 87.806305 
L 152.292952 86.377923 
L 152.666489 84.949542 
L 153.547174 83.521161 
L 154.620299 82.09278 
L 154.743582 80.664398 
L 155.972374 79.236017 
L 156.432462 77.807636 
L 157.043689 76.379255 
L 157.05638 74.950873 
L 158.184531 73.522492 
L 158.920224 72.094111 
L 159.020648 70.66573 
L 159.784765 69.237349 
L 162.60853 67.808967 
L 162.803247 66.380586 
L 163.214474 64.952205 
L 163.86437 63.523824 
L 165.922864 62.095442 
L 166.300931 60.667061 
L 168.968356 59.23868 
L 169.599312 57.810299 
L 172.120219 56.381917 
L 173.592203 54.953536 
L 174.407949 53.525155 
L 176.984295 52.096774 
L 178.098991 50.668392 
L 178.990447 49.240011 
L 183.391753 47.81163 
L 183.503214 46.383249 
L 186.026022 44.954867 
L 186.934799 43.526486 
L 187.931645 42.098105 
L 188.527399 40.669724 
L 190.292726 39.241343 
L 190.608178 37.812961 
L 191.389862 36.38458 
L 193.518698 34.956199 
L 195.218908 33.527818 
L 197.193645 32.099436 
L 199.31098 30.671055 
L 202.757407 29.242674 
L 203.761926 27.814293 
L 204.69146 26.385911 
L 206.989594 24.95753 
L 208.652005 23.529149 
L 216.4273 22.100768 
L 217.624758 20.672386 
L 229.217948 19.244005 
" style="fill:none;stroke:#f08080;stroke-linecap:square;stroke-width:1.5;"/>
   </g>
   <g id="line2d_14">
    <path clip-path="url(#pee766eb508)" d="M 49.778267 166.367273 
L 53.503344 166.070169 
L 53.668473 165.773066 
L 60.288611 165.475963 
L 61.610787 165.17886 
L 64.098366 164.881756 
L 67.868865 164.584653 
L 71.327724 163.693343 
L 74.077943 163.39624 
L 74.404484 163.099136 
L 76.125828 162.802033 
L 76.611257 162.50493 
L 81.869461 161.910723 
L 82.000435 161.61362 
L 82.56124 161.019413 
L 84.84935 160.128103 
L 85.068433 159.831 
L 88.156872 159.236794 
L 89.583528 158.93969 
L 89.613412 158.642587 
L 90.283229 158.345484 
L 90.483243 158.04838 
L 91.582579 157.751277 
L 91.984495 157.454174 
L 94.49609 157.157071 
L 94.759155 156.859967 
L 96.151632 156.562864 
L 96.414376 156.265761 
L 97.764046 155.968657 
L 98.081729 155.671554 
L 98.151045 155.374451 
L 98.576932 155.077347 
L 98.625208 154.780244 
L 98.786931 154.483141 
L 100.726494 152.997624 
L 100.732466 152.700521 
L 101.868644 152.403418 
L 101.978322 152.106314 
L 103.207216 150.620798 
L 103.344946 150.323695 
L 104.54041 150.026591 
L 104.919222 149.432385 
L 104.952606 149.135281 
L 105.453582 148.838178 
L 105.542848 148.541075 
L 106.742455 148.243972 
L 106.792434 147.946868 
L 108.045132 147.352662 
L 108.30492 147.055558 
L 108.361994 146.461352 
L 108.550352 146.164248 
L 110.700138 145.570042 
L 111.921703 144.678732 
L 111.965641 144.084525 
L 112.350788 143.490319 
L 112.919716 143.193216 
L 112.969605 142.599009 
L 113.442241 142.004802 
L 113.745769 141.113492 
L 113.932202 140.519286 
L 115.568714 139.627976 
L 115.922114 139.033769 
L 116.692756 138.736666 
L 117.310314 137.548253 
L 117.585272 137.25115 
L 118.240952 136.954046 
L 119.113779 136.062736 
L 119.382839 135.765633 
L 119.600471 134.874323 
L 119.65239 134.57722 
L 120.863094 133.388807 
L 120.881785 133.091703 
L 121.253918 132.7946 
L 121.364973 131.90329 
L 121.394843 131.606187 
L 122.263079 130.12067 
L 122.697282 129.823567 
L 122.748297 129.526464 
L 123.136178 128.932257 
L 123.147688 128.635154 
L 123.720994 127.743844 
L 123.837936 127.446741 
L 124.200752 127.149637 
L 124.299896 126.258328 
L 124.533368 125.961224 
L 124.913973 125.664121 
L 124.932146 125.367018 
L 125.68843 125.069914 
L 125.736491 124.772811 
L 126.320943 124.475708 
L 126.833171 123.881501 
L 127.249364 122.990191 
L 128.123754 122.395985 
L 128.232092 122.098881 
L 128.898618 121.801778 
L 129.097385 121.504675 
L 129.127368 121.207572 
L 129.651467 120.910468 
L 130.749369 119.127848 
L 131.129508 118.236539 
L 131.683698 117.939435 
L 131.768503 117.642332 
L 132.542882 116.751022 
L 132.937592 116.453919 
L 132.998616 116.156815 
L 133.302089 115.859712 
L 133.446189 115.562609 
L 133.754798 115.265506 
L 133.842678 114.671299 
L 134.290886 113.779989 
L 134.553942 112.591576 
L 134.905247 111.700266 
L 135.041701 111.106059 
L 135.293169 110.808956 
L 135.356969 110.511853 
L 136.06808 110.214749 
L 136.182329 109.620543 
L 136.473872 109.32344 
L 136.927959 109.026336 
L 137.084796 108.43213 
L 137.275064 107.837923 
L 137.475672 107.243717 
L 137.740389 106.946613 
L 138.286701 106.64951 
L 138.483755 106.352407 
L 139.486423 105.461097 
L 139.707947 104.86689 
L 139.823963 104.569787 
L 140.248587 103.97558 
L 140.484172 103.381374 
L 140.871021 103.08427 
L 140.940853 102.787167 
L 141.442455 102.19296 
L 141.643443 101.598754 
L 142.073636 101.301651 
L 142.122531 100.707444 
L 142.482791 99.519031 
L 143.014355 99.221927 
L 143.485907 98.033514 
L 143.83457 97.439308 
L 144.189705 96.547998 
L 144.299403 96.250895 
L 144.59049 95.953791 
L 144.624819 95.656688 
L 145.147332 95.359585 
L 145.301781 95.062481 
L 145.322681 94.765378 
L 145.509417 94.468275 
L 145.594619 93.576965 
L 145.932269 93.279862 
L 146.316732 92.388552 
L 146.351706 92.091448 
L 146.601398 91.794345 
L 146.954928 90.011725 
L 147.165609 89.714622 
L 147.340136 88.823312 
L 147.45737 87.932002 
L 147.562133 87.337796 
L 148.004972 87.040692 
L 148.507212 85.555176 
L 148.508915 85.258073 
L 148.799115 84.960969 
L 148.973318 84.366763 
L 150.273635 83.475453 
L 150.40502 82.881246 
L 150.994154 82.584143 
L 151.149147 81.692833 
L 151.771733 81.098626 
L 152.031548 80.801523 
L 152.257328 79.910213 
L 153.014501 79.61311 
L 153.09059 79.316007 
L 153.798292 78.127593 
L 153.841244 77.83049 
L 154.648761 76.642077 
L 154.703562 76.344974 
L 155.054248 76.04787 
L 155.296198 75.453664 
L 156.101976 74.859457 
L 156.904411 74.562354 
L 156.982152 74.265251 
L 157.606637 73.968147 
L 157.769687 73.671044 
L 158.253755 73.373941 
L 158.62304 72.779734 
L 158.904528 72.185527 
L 159.495311 69.808701 
L 160.09134 69.511598 
L 160.391362 68.620288 
L 160.713303 68.323185 
L 160.810793 68.026081 
L 162.145602 67.431875 
L 162.207222 67.134771 
L 162.660935 66.837668 
L 162.897685 66.243461 
L 163.148637 65.649255 
L 164.539465 65.055048 
L 164.745548 64.460842 
L 165.067552 63.866635 
L 165.425809 63.569532 
L 166.352309 61.192705 
L 167.813762 60.895602 
L 168.572769 60.598499 
L 168.661446 60.301396 
L 169.341969 60.004292 
L 169.507317 59.707189 
L 170.485082 59.112982 
L 170.706635 58.518776 
L 170.906399 58.221672 
L 170.999645 57.627466 
L 171.447413 57.330363 
L 171.667618 56.736156 
L 172.612597 56.439053 
L 172.884568 55.547743 
L 173.349443 54.953536 
L 173.517536 54.656433 
L 173.519707 54.35933 
L 173.812827 54.062226 
L 173.976257 53.46802 
L 175.338304 52.279606 
L 176.017551 51.982503 
L 176.180726 51.388297 
L 176.603169 51.091193 
L 176.668683 50.496987 
L 176.911041 49.90278 
L 177.13813 49.01147 
L 177.150419 48.714367 
L 177.729185 48.12016 
L 177.819869 47.823057 
L 178.196734 47.525954 
L 178.589004 46.634644 
L 179.825068 45.743334 
L 180.746874 45.446231 
L 180.782287 45.149127 
L 181.062394 44.852024 
L 181.623061 44.554921 
L 183.207933 43.960714 
L 183.872089 43.663611 
L 183.89879 43.366508 
L 184.113302 43.069404 
L 184.504118 42.772301 
L 184.834021 41.880991 
L 184.870407 41.583888 
L 185.464599 40.989681 
L 185.494253 40.395475 
L 186.595533 40.098371 
L 186.711911 39.801268 
L 187.567217 39.207061 
L 188.596937 38.612855 
L 188.90218 38.018648 
L 189.085569 37.721545 
L 190.042088 37.424442 
L 190.531782 37.127338 
L 190.776975 36.830235 
L 192.343264 36.236028 
L 192.75428 35.938925 
L 193.108855 35.047615 
L 194.227015 34.453409 
L 195.371423 33.264995 
L 195.50284 32.967892 
L 195.958259 32.670789 
L 196.385466 31.779479 
L 196.630671 31.482376 
L 196.676464 31.185272 
L 196.957479 30.888169 
L 196.994939 30.591066 
L 198.179961 30.293962 
L 198.696732 29.996859 
L 198.831995 29.699756 
L 199.72812 29.402653 
L 200.045215 29.105549 
L 200.233626 28.511343 
L 200.253396 28.214239 
L 200.672472 27.917136 
L 202.347763 27.322929 
L 204.127846 27.025826 
L 204.127851 26.728723 
L 204.442895 26.43162 
L 205.10304 26.134516 
L 206.780208 25.837413 
L 210.414691 25.54031 
L 211.908868 25.243206 
L 212.350123 24.946103 
L 212.469725 24.649 
L 214.427332 24.351897 
L 214.70046 24.054793 
L 214.789482 23.75769 
L 215.161761 23.460587 
L 216.441473 23.163483 
L 217.008147 22.569277 
L 218.179907 22.272173 
L 218.784368 21.97507 
L 220.765478 21.677967 
L 227.580658 21.380864 
L 227.629668 21.08376 
L 230.895843 20.786657 
L 232.703508 20.489554 
L 232.813689 20.19245 
L 233.262036 19.895347 
L 235.678462 19.598244 
L 237.068633 19.30114 
L 240.66842 19.004037 
L 247.797442 18.706934 
L 248.488701 18.409831 
L 252.687358 18.112727 
L 252.687358 18.112727 
" style="fill:none;stroke:#1e90ff;stroke-linecap:square;stroke-width:1.5;"/>
   </g>
   <g id="patch_3">
    <path d="M 39.632812 173.78 
L 39.632812 10.7 
" style="fill:none;stroke:#000000;stroke-linecap:square;stroke-linejoin:miter;stroke-width:0.8;"/>
   </g>
   <g id="patch_4">
    <path d="M 262.832812 173.78 
L 262.832812 10.7 
" style="fill:none;stroke:#000000;stroke-linecap:square;stroke-linejoin:miter;stroke-width:0.8;"/>
   </g>
   <g id="patch_5">
    <path d="M 39.632812 173.78 
L 262.832813 173.78 
" style="fill:none;stroke:#000000;stroke-linecap:square;stroke-linejoin:miter;stroke-width:0.8;"/>
   </g>
   <g id="patch_6">
    <path d="M 39.632812 10.7 
L 262.832813 10.7 
" style="fill:none;stroke:#000000;stroke-linecap:square;stroke-linejoin:miter;stroke-width:0.8;"/>
   </g>
   <g id="legend_1">
    <g id="patch_7">
     <path d="M 44.532812 36.849375 
L 139.258125 36.849375 
Q 140.658125 36.849375 140.658125 35.449375 
L 140.658125 15.6 
Q 140.658125 14.2 139.258125 14.2 
L 44.532812 14.2 
Q 43.132812 14.2 43.132812 15.6 
L 43.132812 35.449375 
Q 43.132812 36.849375 44.532812 36.849375 
z
" style="fill:#ffffff;opacity:0.8;stroke:#cccccc;stroke-linejoin:miter;"/>
    </g>
    <g id="patch_8">
     <path d="M 45.932812 22.318906 
L 59.932812 22.318906 
L 59.932812 17.418906 
L 45.932812 17.418906 
z
" style="fill:#f08080;stroke:#f08080;stroke-linejoin:miter;"/>
    </g>
    <g id="text_15">
     <!-- Substrate group -->
     <defs>
      <path d="M 53.515625 70.515625 
L 53.515625 60.890625 
Q 47.90625 63.578125 42.921875 64.890625 
Q 37.9375 66.21875 33.296875 66.21875 
Q 25.25 66.21875 20.875 63.09375 
Q 16.5 59.96875 16.5 54.203125 
Q 16.5 49.359375 19.40625 46.890625 
Q 22.3125 44.4375 30.421875 42.921875 
L 36.375 41.703125 
Q 47.40625 39.59375 52.65625 34.296875 
Q 57.90625 29 57.90625 20.125 
Q 57.90625 9.515625 50.796875 4.046875 
Q 43.703125 -1.421875 29.984375 -1.421875 
Q 24.8125 -1.421875 18.96875 -0.25 
Q 13.140625 0.921875 6.890625 3.21875 
L 6.890625 13.375 
Q 12.890625 10.015625 18.65625 8.296875 
Q 24.421875 6.59375 29.984375 6.59375 
Q 38.421875 6.59375 43.015625 9.90625 
Q 47.609375 13.234375 47.609375 19.390625 
Q 47.609375 24.75 44.3125 27.78125 
Q 41.015625 30.8125 33.5 32.328125 
L 27.484375 33.5 
Q 16.453125 35.6875 11.515625 40.375 
Q 6.59375 45.0625 6.59375 53.421875 
Q 6.59375 63.09375 13.40625 68.65625 
Q 20.21875 74.21875 32.171875 74.21875 
Q 37.3125 74.21875 42.625 73.28125 
Q 47.953125 72.359375 53.515625 70.515625 
z
" id="DejaVuSans-83"/>
      <path d="M 18.109375 8.203125 
L 18.109375 -20.796875 
L 9.078125 -20.796875 
L 9.078125 54.6875 
L 18.109375 54.6875 
L 18.109375 46.390625 
Q 20.953125 51.265625 25.265625 53.625 
Q 29.59375 56 35.59375 56 
Q 45.5625 56 51.78125 48.09375 
Q 58.015625 40.1875 58.015625 27.296875 
Q 58.015625 14.40625 51.78125 6.484375 
Q 45.5625 -1.421875 35.59375 -1.421875 
Q 29.59375 -1.421875 25.265625 0.953125 
Q 20.953125 3.328125 18.109375 8.203125 
z
M 48.6875 27.296875 
Q 48.6875 37.203125 44.609375 42.84375 
Q 40.53125 48.484375 33.40625 48.484375 
Q 26.265625 48.484375 22.1875 42.84375 
Q 18.109375 37.203125 18.109375 27.296875 
Q 18.109375 17.390625 22.1875 11.75 
Q 26.265625 6.109375 33.40625 6.109375 
Q 40.53125 6.109375 44.609375 11.75 
Q 48.6875 17.390625 48.6875 27.296875 
z
" id="DejaVuSans-112"/>
     </defs>
     <g transform="translate(65.532813 22.318906)scale(0.07 -0.07)">
      <use xlink:href="#DejaVuSans-83"/>
      <use x="63.476562" xlink:href="#DejaVuSans-117"/>
      <use x="126.855469" xlink:href="#DejaVuSans-98"/>
      <use x="190.332031" xlink:href="#DejaVuSans-115"/>
      <use x="242.431641" xlink:href="#DejaVuSans-116"/>
      <use x="281.640625" xlink:href="#DejaVuSans-114"/>
      <use x="322.753906" xlink:href="#DejaVuSans-97"/>
      <use x="384.033203" xlink:href="#DejaVuSans-116"/>
      <use x="423.242188" xlink:href="#DejaVuSans-101"/>
      <use x="484.765625" xlink:href="#DejaVuSans-32"/>
      <use x="516.552734" xlink:href="#DejaVuSans-103"/>
      <use x="580.029297" xlink:href="#DejaVuSans-114"/>
      <use x="621.111328" xlink:href="#DejaVuSans-111"/>
      <use x="682.292969" xlink:href="#DejaVuSans-117"/>
      <use x="745.671875" xlink:href="#DejaVuSans-112"/>
     </g>
    </g>
    <g id="patch_9">
     <path d="M 45.932812 32.593594 
L 59.932812 32.593594 
L 59.932812 27.693594 
L 45.932812 27.693594 
z
" style="fill:#1e90ff;stroke:#1e90ff;stroke-linejoin:miter;"/>
    </g>
    <g id="text_16">
     <!-- Non-substrate group -->
     <defs>
      <path d="M 9.8125 72.90625 
L 23.09375 72.90625 
L 55.421875 11.921875 
L 55.421875 72.90625 
L 64.984375 72.90625 
L 64.984375 0 
L 51.703125 0 
L 19.390625 60.984375 
L 19.390625 0 
L 9.8125 0 
z
" id="DejaVuSans-78"/>
      <path d="M 4.890625 31.390625 
L 31.203125 31.390625 
L 31.203125 23.390625 
L 4.890625 23.390625 
z
" id="DejaVuSans-45"/>
     </defs>
     <g transform="translate(65.532813 32.593594)scale(0.07 -0.07)">
      <use xlink:href="#DejaVuSans-78"/>
      <use x="74.804688" xlink:href="#DejaVuSans-111"/>
      <use x="135.986328" xlink:href="#DejaVuSans-110"/>
      <use x="199.365234" xlink:href="#DejaVuSans-45"/>
      <use x="235.449219" xlink:href="#DejaVuSans-115"/>
      <use x="287.548828" xlink:href="#DejaVuSans-117"/>
      <use x="350.927734" xlink:href="#DejaVuSans-98"/>
      <use x="414.404297" xlink:href="#DejaVuSans-115"/>
      <use x="466.503906" xlink:href="#DejaVuSans-116"/>
      <use x="505.712891" xlink:href="#DejaVuSans-114"/>
      <use x="546.826172" xlink:href="#DejaVuSans-97"/>
      <use x="608.105469" xlink:href="#DejaVuSans-116"/>
      <use x="647.314453" xlink:href="#DejaVuSans-101"/>
      <use x="708.837891" xlink:href="#DejaVuSans-32"/>
      <use x="740.625" xlink:href="#DejaVuSans-103"/>
      <use x="804.101562" xlink:href="#DejaVuSans-114"/>
      <use x="845.183594" xlink:href="#DejaVuSans-111"/>
      <use x="906.365234" xlink:href="#DejaVuSans-117"/>
      <use x="969.744141" xlink:href="#DejaVuSans-112"/>
     </g>
    </g>
   </g>
  </g>
 </g>
 <defs>
  <clipPath id="pee766eb508">
   <rect height="163.08" width="223.2" x="39.632812" y="10.7"/>
  </clipPath>
 </defs>
</svg>
