<svg id="Layer_1" data-name="Layer 1" xmlns="http://www.w3.org/2000/svg" viewBox="0 0 207.64 53.92"><defs><style>.cls-1,.cls-4{fill:#f5f4f3;}.cls-2{font-size:30px;fill:#19427f;font-family:TimesNewRomanPS-BoldMT, Times New Roman;font-weight:700;}.cls-3{fill:#6bccf7;}.cls-4,.cls-6{stroke:#55c7ff;stroke-width:1.3px;}.cls-4,.cls-5,.cls-6{stroke-miterlimit:10;}.cls-5{fill:#fff;stroke:#6bccf7;stroke-width:0.5px;}.cls-6{fill:none;}</style></defs><title>logo</title><rect class="cls-1" width="207.64" height="53.92"/><text class="cls-2" transform="translate(69.24 40.53)">KSEA<tspan class="cls-3" x="81.69" y="0">Plus</tspan></text><rect class="cls-4" x="30.13" y="29.17" width="8.34" height="21.44"/><path class="cls-5" d="M15.85,5.07" transform="translate(0)"/><ellipse class="cls-4" cx="20.3" cy="13.9" rx="4.49" ry="4.37"/><rect class="cls-4" x="16.12" y="20.99" width="8.34" height="29.62"/><ellipse class="cls-4" cx="34.31" cy="20.99" rx="4.49" ry="4.37"/><line class="cls-6" x1="24.38" y1="16.5" x2="29.81" y2="19.2"/><rect class="cls-4" x="43.87" y="15.2" width="8.34" height="35.49"/><line class="cls-4" x1="37.29" y1="18.11" x2="48.37" y2="7.6"/><ellipse class="cls-4" cx="48.37" cy="7.6" rx="4.49" ry="4.37"/><rect class="cls-4" x="56.99" y="22.51" width="8.34" height="28.1"/><line class="cls-6" x1="51.66" y1="10.39" x2="59.88" y2="15.18"/><ellipse class="cls-4" cx="61.16" cy="15.18" rx="4.49" ry="4.37"/><rect class="cls-4" x="2.43" y="30.74" width="8.34" height="19.87"/><ellipse class="cls-4" cx="6.61" cy="23.92" rx="4.49" ry="4.37"/><line class="cls-6" x1="10.22" y1="21.33" x2="16.81" y2="16.62"/></svg>